# xmcd
# 
# Track frame offsets:
#     150
#     20492
#     42572
#     62682
#     80002
#     106415
#     125720
#     145117
#     161632
#     182742
# 
# Disc length: 2597
# 
# Revision: 1
# Processed by: cddbd v1.5.2PL0 Copyright (c) Steve Scherf et al.
# Submitted via: fre:ac v1.0.31
# 
DISCID=8c0a230a
DTITLE=Various Artist - KHCD51-Thà Đừng Yêu Nhau
DYEAR=1998
DGENRE=Pop
TTITLE0=Tô Chấn Phong - Thà Đừng Yêu Nhau ©
TTITLE1=Mimi Lê - Tóc Em Chưa Úa Nắng Hè
TTITLE2=Tô Chấn Phong - Vẫn Chưa Quên Người
TTITLE3=Mimi Lê - Thu Mộng
TTITLE4=Tô Chấn Phong and Mimi Lê - Nuối Tiếc ©
TTITLE5=Mimi Lê - Đừng Nói Yêu Em
TTITLE6=Tô Chấn Phong - Mong Manh
TTITLE7=Mimi Lê - Tình Nào Không Dối Gian
TTITLE8=Tô Chấn Phong - Niềm Đau Dĩ Vãng
TTITLE9=Mimi Lê - Baby I'm Yours
EXTD=
EXTT0=
EXTT1=
EXTT2=
EXTT3=
EXTT4=
EXTT5=
EXTT6=
EXTT7=
EXTT8=
EXTT9=
PLAYORDER=
